<svg id="Flat" height="512" viewBox="0 0 512 512" width="512" xmlns="http://www.w3.org/2000/svg"><g><path d="m24 72h464v392h-464z" fill="#edfaff"/><path d="m186 136h-18s-13.431-16-30-16h-42v34a30 30 0 0 0 30 30h90v-18a30 30 0 0 0 -30-30z" fill="#fdbf67"/><path d="m280 416v-66.459a20 20 0 0 0 -12.572-18.57l-67.428-26.971h-64l-67.428 26.971a20 20 0 0 0 -12.572 18.57v66.459z" fill="#80daff"/><path d="m24 88v-54a10 10 0 0 1 10-10h444a10 10 0 0 1 10 10v54z" fill="#25b1fa"/><circle cx="380" cy="276" fill="#fdbf67" r="68"/><path d="m468 488h-424a20 20 0 0 1 -20-20v-28h152l16 16h128l16-16h152v28a20 20 0 0 1 -20 20z" fill="#25b1fa"/><path d="m400 368v-84a20 20 0 0 0 -20-20 20 20 0 0 0 -20 20v108l-24.712-4.119a20 20 0 0 0 -23.288 19.728v4.03a20 20 0 0 0 11.056 17.889l36.944 18.472v40h108a20 20 0 0 0 20-20v-70a30 30 0 0 0 -30-30z" fill="#ffd4cf"/><circle cx="224" cy="376" fill="#fdfeff" r="24"/><path d="m128 184v52.676a20 20 0 0 0 9.71 17.15l12.512 7.507-14.222 42.667 32 40 32-40-14.222-42.667 12.512-7.507a20 20 0 0 0 9.71-17.15v-52.676z" fill="#ffd4cf"/><g fill="#fdfeff"><path d="m48 48h16v16h-16z"/><path d="m80 48h16v16h-16z"/><path d="m112 48h16v16h-16z"/><path d="m448 48h16v16h-16z"/></g><path d="m232 345.012v-33.012a8 8 0 0 0 -8-8 8 8 0 0 0 -8 8v33.012a32 32 0 1 0 16 0zm-8 46.988a16 16 0 1 1 16-16 16.019 16.019 0 0 1 -16 16z" fill="#25b1fa"/><path d="m135.8 364.485-15.8-15.8v-36.685a8 8 0 0 0 -8-8 8 8 0 0 0 -8 8v36.686l-15.8 15.8a27.819 27.819 0 0 0 -8.2 19.8v15.714a8 8 0 0 0 8 8h16v-16h-8v-7.716a11.915 11.915 0 0 1 3.515-8.484l12.485-12.487 12.485 12.487a11.915 11.915 0 0 1 3.515 8.484v7.716h-8v16h16a8 8 0 0 0 8-8v-15.716a27.819 27.819 0 0 0 -8.2-19.799z" fill="#25b1fa"/><path d="m254.656 212.438-13.312-8.876 48-72a8 8 0 0 1 6.656-3.562h152v16h-147.719z" fill="#80daff"/><path d="m304 160h40v16h-40z" fill="#80daff"/><path d="m360 160h88v16h-88z" fill="#80daff"/></g></svg>